<svg fill="none" height="15" viewBox="0 0 14 15" width="14" xmlns="http://www.w3.org/2000/svg"><path d="m5.98088 1.42792c-.05798-.03463-.12426-.05292-.19179-.05292-.06754 0-.13381.01829-.19179.05292-.04783.03789-.0801.09201-.0907.1521-.0106.06008.00119.12197.03316.17395 1.17952 2.04257 1.42884 4.82354-.1822 6.35787-.61984-.52088-1.11194-1.17701-1.43843-1.91791-.59577.33089-1.08952.81866-1.42763 1.41036-.33812.5917-.50768 1.26471-.49028 1.94598.10101 2.49453 1.70694 4.31533 4.79477 4.31533 3.08784 0 4.68931-1.9179 4.79481-4.31533.1246-2.87686-1.91794-6.41541-5.60992-8.12235z" fill="#d7e0ff" stroke="#4147d5" stroke-linecap="round" stroke-linejoin="round" stroke-width="1.5"/><path d="m9.19342 9.55029c0 .50871-.20206.99651-.56174 1.35621-.35968.3596-.84751.5617-1.35617.5617" fill="#d7e0ff"/><path d="m9.19342 9.55029c0 .50871-.20206.99651-.56174 1.35621-.35968.3596-.84751.5617-1.35617.5617" stroke="#4147d5" stroke-linecap="round" stroke-linejoin="round" stroke-width="1.5"/></svg>